<?xml version="1.0" encoding="utf-8" standalone="no"?>
<!DOCTYPE svg PUBLIC "-//W3C//DTD SVG 1.1//EN"
  "http://www.w3.org/Graphics/SVG/1.1/DTD/svg11.dtd">
<!-- Created with matplotlib (https://matplotlib.org/) -->
<svg height="396pt" version="1.1" viewBox="0 0 576 396" width="576pt" xmlns="http://www.w3.org/2000/svg" xmlns:xlink="http://www.w3.org/1999/xlink">
 <metadata>
  <rdf:RDF xmlns:cc="http://creativecommons.org/ns#" xmlns:dc="http://purl.org/dc/elements/1.1/" xmlns:rdf="http://www.w3.org/1999/02/22-rdf-syntax-ns#">
   <cc:Work>
    <dc:type rdf:resource="http://purl.org/dc/dcmitype/StillImage"/>
    <dc:date>2020-11-30T22:04:50.500183</dc:date>
    <dc:format>image/svg+xml</dc:format>
    <dc:creator>
     <cc:Agent>
      <dc:title>Matplotlib v3.3.2, https://matplotlib.org/</dc:title>
     </cc:Agent>
    </dc:creator>
   </cc:Work>
  </rdf:RDF>
 </metadata>
 <defs>
  <style type="text/css">*{stroke-linecap:butt;stroke-linejoin:round;}</style>
 </defs>
 <g id="figure_1">
  <g id="patch_1">
   <path d="M 0 396 
L 576 396 
L 576 0 
L 0 0 
z
" style="fill:#ffffff;"/>
  </g>
  <g id="axes_1">
   <g id="patch_2">
    <path d="M 72 352.44 
L 518.4 352.44 
L 518.4 47.52 
L 72 47.52 
z
" style="fill:#eaeaf2;"/>
   </g>
   <g id="matplotlib.axis_1">
    <g id="xtick_1">
     <g id="line2d_1">
      <path clip-path="url(#p67512bc3aa)" d="M 80.140664 352.44 
L 80.140664 47.52 
" style="fill:none;stroke:#ffffff;stroke-linecap:round;"/>
     </g>
     <g id="line2d_2"/>
     <g id="text_1">
      <!-- 0 -->
      <g style="fill:#262626;" transform="translate(77.360195 366.597813)scale(0.1 -0.1)">
       <defs>
        <path d="M 4.15625 35.296875 
Q 4.15625 48 6.765625 55.734375 
Q 9.375 63.484375 14.515625 67.671875 
Q 19.671875 71.875 27.484375 71.875 
Q 33.25 71.875 37.59375 69.546875 
Q 41.9375 67.234375 44.765625 62.859375 
Q 47.609375 58.5 49.21875 52.21875 
Q 50.828125 45.953125 50.828125 35.296875 
Q 50.828125 22.703125 48.234375 14.96875 
Q 45.65625 7.234375 40.5 3 
Q 35.359375 -1.21875 27.484375 -1.21875 
Q 17.140625 -1.21875 11.234375 6.203125 
Q 4.15625 15.140625 4.15625 35.296875 
z
M 13.1875 35.296875 
Q 13.1875 17.671875 17.3125 11.828125 
Q 21.4375 6 27.484375 6 
Q 33.546875 6 37.671875 11.859375 
Q 41.796875 17.71875 41.796875 35.296875 
Q 41.796875 52.984375 37.671875 58.78125 
Q 33.546875 64.59375 27.390625 64.59375 
Q 21.34375 64.59375 17.71875 59.46875 
Q 13.1875 52.9375 13.1875 35.296875 
z
" id="ArialMT-48"/>
       </defs>
       <use xlink:href="#ArialMT-48"/>
      </g>
     </g>
    </g>
    <g id="xtick_2">
     <g id="line2d_3">
      <path clip-path="url(#p67512bc3aa)" d="M 140.891889 352.44 
L 140.891889 47.52 
" style="fill:none;stroke:#ffffff;stroke-linecap:round;"/>
     </g>
     <g id="line2d_4"/>
     <g id="text_2">
      <!-- 25 -->
      <g style="fill:#262626;" transform="translate(135.330951 366.597813)scale(0.1 -0.1)">
       <defs>
        <path d="M 50.34375 8.453125 
L 50.34375 0 
L 3.03125 0 
Q 2.9375 3.171875 4.046875 6.109375 
Q 5.859375 10.9375 9.828125 15.625 
Q 13.8125 20.3125 21.34375 26.46875 
Q 33.015625 36.03125 37.109375 41.625 
Q 41.21875 47.21875 41.21875 52.203125 
Q 41.21875 57.421875 37.46875 61 
Q 33.734375 64.59375 27.734375 64.59375 
Q 21.390625 64.59375 17.578125 60.78125 
Q 13.765625 56.984375 13.71875 50.25 
L 4.6875 51.171875 
Q 5.609375 61.28125 11.65625 66.578125 
Q 17.71875 71.875 27.9375 71.875 
Q 38.234375 71.875 44.234375 66.15625 
Q 50.25 60.453125 50.25 52 
Q 50.25 47.703125 48.484375 43.546875 
Q 46.734375 39.40625 42.65625 34.8125 
Q 38.578125 30.21875 29.109375 22.21875 
Q 21.1875 15.578125 18.9375 13.203125 
Q 16.703125 10.84375 15.234375 8.453125 
z
" id="ArialMT-50"/>
        <path d="M 4.15625 18.75 
L 13.375 19.53125 
Q 14.40625 12.796875 18.140625 9.390625 
Q 21.875 6 27.15625 6 
Q 33.5 6 37.890625 10.78125 
Q 42.28125 15.578125 42.28125 23.484375 
Q 42.28125 31 38.0625 35.34375 
Q 33.84375 39.703125 27 39.703125 
Q 22.75 39.703125 19.328125 37.765625 
Q 15.921875 35.84375 13.96875 32.765625 
L 5.71875 33.84375 
L 12.640625 70.609375 
L 48.25 70.609375 
L 48.25 62.203125 
L 19.671875 62.203125 
L 15.828125 42.96875 
Q 22.265625 47.46875 29.34375 47.46875 
Q 38.71875 47.46875 45.15625 40.96875 
Q 51.609375 34.46875 51.609375 24.265625 
Q 51.609375 14.546875 45.953125 7.46875 
Q 39.0625 -1.21875 27.15625 -1.21875 
Q 17.390625 -1.21875 11.203125 4.25 
Q 5.03125 9.71875 4.15625 18.75 
z
" id="ArialMT-53"/>
       </defs>
       <use xlink:href="#ArialMT-50"/>
       <use x="55.615234" xlink:href="#ArialMT-53"/>
      </g>
     </g>
    </g>
    <g id="xtick_3">
     <g id="line2d_5">
      <path clip-path="url(#p67512bc3aa)" d="M 201.643114 352.44 
L 201.643114 47.52 
" style="fill:none;stroke:#ffffff;stroke-linecap:round;"/>
     </g>
     <g id="line2d_6"/>
     <g id="text_3">
      <!-- 50 -->
      <g style="fill:#262626;" transform="translate(196.082176 366.597813)scale(0.1 -0.1)">
       <use xlink:href="#ArialMT-53"/>
       <use x="55.615234" xlink:href="#ArialMT-48"/>
      </g>
     </g>
    </g>
    <g id="xtick_4">
     <g id="line2d_7">
      <path clip-path="url(#p67512bc3aa)" d="M 262.394339 352.44 
L 262.394339 47.52 
" style="fill:none;stroke:#ffffff;stroke-linecap:round;"/>
     </g>
     <g id="line2d_8"/>
     <g id="text_4">
      <!-- 75 -->
      <g style="fill:#262626;" transform="translate(256.833401 366.597813)scale(0.1 -0.1)">
       <defs>
        <path d="M 4.734375 62.203125 
L 4.734375 70.65625 
L 51.078125 70.65625 
L 51.078125 63.8125 
Q 44.234375 56.546875 37.515625 44.484375 
Q 30.8125 32.421875 27.15625 19.671875 
Q 24.515625 10.6875 23.78125 0 
L 14.75 0 
Q 14.890625 8.453125 18.0625 20.40625 
Q 21.234375 32.375 27.171875 43.484375 
Q 33.109375 54.59375 39.796875 62.203125 
z
" id="ArialMT-55"/>
       </defs>
       <use xlink:href="#ArialMT-55"/>
       <use x="55.615234" xlink:href="#ArialMT-53"/>
      </g>
     </g>
    </g>
    <g id="xtick_5">
     <g id="line2d_9">
      <path clip-path="url(#p67512bc3aa)" d="M 323.145563 352.44 
L 323.145563 47.52 
" style="fill:none;stroke:#ffffff;stroke-linecap:round;"/>
     </g>
     <g id="line2d_10"/>
     <g id="text_5">
      <!-- 100 -->
      <g style="fill:#262626;" transform="translate(314.804157 366.597813)scale(0.1 -0.1)">
       <defs>
        <path d="M 37.25 0 
L 28.46875 0 
L 28.46875 56 
Q 25.296875 52.984375 20.140625 49.953125 
Q 14.984375 46.921875 10.890625 45.40625 
L 10.890625 53.90625 
Q 18.265625 57.375 23.78125 62.296875 
Q 29.296875 67.234375 31.59375 71.875 
L 37.25 71.875 
z
" id="ArialMT-49"/>
       </defs>
       <use xlink:href="#ArialMT-49"/>
       <use x="55.615234" xlink:href="#ArialMT-48"/>
       <use x="111.230469" xlink:href="#ArialMT-48"/>
      </g>
     </g>
    </g>
    <g id="xtick_6">
     <g id="line2d_11">
      <path clip-path="url(#p67512bc3aa)" d="M 383.896788 352.44 
L 383.896788 47.52 
" style="fill:none;stroke:#ffffff;stroke-linecap:round;"/>
     </g>
     <g id="line2d_12"/>
     <g id="text_6">
      <!-- 125 -->
      <g style="fill:#262626;" transform="translate(375.555382 366.597813)scale(0.1 -0.1)">
       <use xlink:href="#ArialMT-49"/>
       <use x="55.615234" xlink:href="#ArialMT-50"/>
       <use x="111.230469" xlink:href="#ArialMT-53"/>
      </g>
     </g>
    </g>
    <g id="xtick_7">
     <g id="line2d_13">
      <path clip-path="url(#p67512bc3aa)" d="M 444.648013 352.44 
L 444.648013 47.52 
" style="fill:none;stroke:#ffffff;stroke-linecap:round;"/>
     </g>
     <g id="line2d_14"/>
     <g id="text_7">
      <!-- 150 -->
      <g style="fill:#262626;" transform="translate(436.306607 366.597813)scale(0.1 -0.1)">
       <use xlink:href="#ArialMT-49"/>
       <use x="55.615234" xlink:href="#ArialMT-53"/>
       <use x="111.230469" xlink:href="#ArialMT-48"/>
      </g>
     </g>
    </g>
    <g id="xtick_8">
     <g id="line2d_15">
      <path clip-path="url(#p67512bc3aa)" d="M 505.399238 352.44 
L 505.399238 47.52 
" style="fill:none;stroke:#ffffff;stroke-linecap:round;"/>
     </g>
     <g id="line2d_16"/>
     <g id="text_8">
      <!-- 175 -->
      <g style="fill:#262626;" transform="translate(497.057832 366.597813)scale(0.1 -0.1)">
       <use xlink:href="#ArialMT-49"/>
       <use x="55.615234" xlink:href="#ArialMT-55"/>
       <use x="111.230469" xlink:href="#ArialMT-53"/>
      </g>
     </g>
    </g>
    <g id="text_9">
     <!-- Frame Number -->
     <g style="fill:#262626;" transform="translate(258.222812 380.458906)scale(0.11 -0.11)">
      <defs>
       <path d="M 8.203125 0 
L 8.203125 71.578125 
L 56.5 71.578125 
L 56.5 63.140625 
L 17.671875 63.140625 
L 17.671875 40.96875 
L 51.265625 40.96875 
L 51.265625 32.515625 
L 17.671875 32.515625 
L 17.671875 0 
z
" id="ArialMT-70"/>
       <path d="M 6.5 0 
L 6.5 51.859375 
L 14.40625 51.859375 
L 14.40625 44 
Q 17.4375 49.515625 20 51.265625 
Q 22.5625 53.03125 25.640625 53.03125 
Q 30.078125 53.03125 34.671875 50.203125 
L 31.640625 42.046875 
Q 28.421875 43.953125 25.203125 43.953125 
Q 22.3125 43.953125 20.015625 42.21875 
Q 17.71875 40.484375 16.75 37.40625 
Q 15.28125 32.71875 15.28125 27.15625 
L 15.28125 0 
z
" id="ArialMT-114"/>
       <path d="M 40.4375 6.390625 
Q 35.546875 2.25 31.03125 0.53125 
Q 26.515625 -1.171875 21.34375 -1.171875 
Q 12.796875 -1.171875 8.203125 3 
Q 3.609375 7.171875 3.609375 13.671875 
Q 3.609375 17.484375 5.34375 20.625 
Q 7.078125 23.78125 9.890625 25.6875 
Q 12.703125 27.59375 16.21875 28.5625 
Q 18.796875 29.25 24.03125 29.890625 
Q 34.671875 31.15625 39.703125 32.90625 
Q 39.75 34.71875 39.75 35.203125 
Q 39.75 40.578125 37.25 42.78125 
Q 33.890625 45.75 27.25 45.75 
Q 21.046875 45.75 18.09375 43.578125 
Q 15.140625 41.40625 13.71875 35.890625 
L 5.125 37.0625 
Q 6.296875 42.578125 8.984375 45.96875 
Q 11.671875 49.359375 16.75 51.1875 
Q 21.828125 53.03125 28.515625 53.03125 
Q 35.15625 53.03125 39.296875 51.46875 
Q 43.453125 49.90625 45.40625 47.53125 
Q 47.359375 45.171875 48.140625 41.546875 
Q 48.578125 39.3125 48.578125 33.453125 
L 48.578125 21.734375 
Q 48.578125 9.46875 49.140625 6.21875 
Q 49.703125 2.984375 51.375 0 
L 42.1875 0 
Q 40.828125 2.734375 40.4375 6.390625 
z
M 39.703125 26.03125 
Q 34.90625 24.078125 25.34375 22.703125 
Q 19.921875 21.921875 17.671875 20.9375 
Q 15.4375 19.96875 14.203125 18.09375 
Q 12.984375 16.21875 12.984375 13.921875 
Q 12.984375 10.40625 15.640625 8.0625 
Q 18.3125 5.71875 23.4375 5.71875 
Q 28.515625 5.71875 32.46875 7.9375 
Q 36.421875 10.15625 38.28125 14.015625 
Q 39.703125 17 39.703125 22.796875 
z
" id="ArialMT-97"/>
       <path d="M 6.59375 0 
L 6.59375 51.859375 
L 14.453125 51.859375 
L 14.453125 44.578125 
Q 16.890625 48.390625 20.9375 50.703125 
Q 25 53.03125 30.171875 53.03125 
Q 35.9375 53.03125 39.625 50.640625 
Q 43.3125 48.25 44.828125 43.953125 
Q 50.984375 53.03125 60.84375 53.03125 
Q 68.5625 53.03125 72.703125 48.75 
Q 76.859375 44.484375 76.859375 35.59375 
L 76.859375 0 
L 68.109375 0 
L 68.109375 32.671875 
Q 68.109375 37.9375 67.25 40.25 
Q 66.40625 42.578125 64.15625 43.984375 
Q 61.921875 45.40625 58.890625 45.40625 
Q 53.421875 45.40625 49.796875 41.765625 
Q 46.1875 38.140625 46.1875 30.125 
L 46.1875 0 
L 37.40625 0 
L 37.40625 33.6875 
Q 37.40625 39.546875 35.25 42.46875 
Q 33.109375 45.40625 28.21875 45.40625 
Q 24.515625 45.40625 21.359375 43.453125 
Q 18.21875 41.5 16.796875 37.734375 
Q 15.375 33.984375 15.375 26.90625 
L 15.375 0 
z
" id="ArialMT-109"/>
       <path d="M 42.09375 16.703125 
L 51.171875 15.578125 
Q 49.03125 7.625 43.21875 3.21875 
Q 37.40625 -1.171875 28.375 -1.171875 
Q 17 -1.171875 10.328125 5.828125 
Q 3.65625 12.84375 3.65625 25.484375 
Q 3.65625 38.578125 10.390625 45.796875 
Q 17.140625 53.03125 27.875 53.03125 
Q 38.28125 53.03125 44.875 45.953125 
Q 51.46875 38.875 51.46875 26.03125 
Q 51.46875 25.25 51.421875 23.6875 
L 12.75 23.6875 
Q 13.234375 15.140625 17.578125 10.59375 
Q 21.921875 6.0625 28.421875 6.0625 
Q 33.25 6.0625 36.671875 8.59375 
Q 40.09375 11.140625 42.09375 16.703125 
z
M 13.234375 30.90625 
L 42.1875 30.90625 
Q 41.609375 37.453125 38.875 40.71875 
Q 34.671875 45.796875 27.984375 45.796875 
Q 21.921875 45.796875 17.796875 41.75 
Q 13.671875 37.703125 13.234375 30.90625 
z
" id="ArialMT-101"/>
       <path id="ArialMT-32"/>
       <path d="M 7.625 0 
L 7.625 71.578125 
L 17.328125 71.578125 
L 54.9375 15.375 
L 54.9375 71.578125 
L 64.015625 71.578125 
L 64.015625 0 
L 54.296875 0 
L 16.703125 56.25 
L 16.703125 0 
z
" id="ArialMT-78"/>
       <path d="M 40.578125 0 
L 40.578125 7.625 
Q 34.515625 -1.171875 24.125 -1.171875 
Q 19.53125 -1.171875 15.546875 0.578125 
Q 11.578125 2.34375 9.640625 5 
Q 7.71875 7.671875 6.9375 11.53125 
Q 6.390625 14.109375 6.390625 19.734375 
L 6.390625 51.859375 
L 15.1875 51.859375 
L 15.1875 23.09375 
Q 15.1875 16.21875 15.71875 13.8125 
Q 16.546875 10.359375 19.234375 8.375 
Q 21.921875 6.390625 25.875 6.390625 
Q 29.828125 6.390625 33.296875 8.421875 
Q 36.765625 10.453125 38.203125 13.9375 
Q 39.65625 17.4375 39.65625 24.078125 
L 39.65625 51.859375 
L 48.4375 51.859375 
L 48.4375 0 
z
" id="ArialMT-117"/>
       <path d="M 14.703125 0 
L 6.546875 0 
L 6.546875 71.578125 
L 15.328125 71.578125 
L 15.328125 46.046875 
Q 20.90625 53.03125 29.546875 53.03125 
Q 34.328125 53.03125 38.59375 51.09375 
Q 42.875 49.171875 45.625 45.671875 
Q 48.390625 42.1875 49.953125 37.25 
Q 51.515625 32.328125 51.515625 26.703125 
Q 51.515625 13.375 44.921875 6.09375 
Q 38.328125 -1.171875 29.109375 -1.171875 
Q 19.921875 -1.171875 14.703125 6.5 
z
M 14.59375 26.3125 
Q 14.59375 17 17.140625 12.84375 
Q 21.296875 6.0625 28.375 6.0625 
Q 34.125 6.0625 38.328125 11.0625 
Q 42.53125 16.0625 42.53125 25.984375 
Q 42.53125 36.140625 38.5 40.96875 
Q 34.46875 45.796875 28.765625 45.796875 
Q 23 45.796875 18.796875 40.796875 
Q 14.59375 35.796875 14.59375 26.3125 
z
" id="ArialMT-98"/>
      </defs>
      <use xlink:href="#ArialMT-70"/>
      <use x="61.083984" xlink:href="#ArialMT-114"/>
      <use x="94.384766" xlink:href="#ArialMT-97"/>
      <use x="150" xlink:href="#ArialMT-109"/>
      <use x="233.300781" xlink:href="#ArialMT-101"/>
      <use x="288.916016" xlink:href="#ArialMT-32"/>
      <use x="316.699219" xlink:href="#ArialMT-78"/>
      <use x="388.916016" xlink:href="#ArialMT-117"/>
      <use x="444.53125" xlink:href="#ArialMT-109"/>
      <use x="527.832031" xlink:href="#ArialMT-98"/>
      <use x="583.447266" xlink:href="#ArialMT-101"/>
      <use x="639.0625" xlink:href="#ArialMT-114"/>
     </g>
    </g>
   </g>
   <g id="matplotlib.axis_2">
    <g id="ytick_1">
     <g id="line2d_17">
      <path clip-path="url(#p67512bc3aa)" d="M 72 323.625733 
L 518.4 323.625733 
" style="fill:none;stroke:#ffffff;stroke-linecap:round;"/>
     </g>
     <g id="line2d_18"/>
     <g id="text_10">
      <!-- 0 -->
      <g style="fill:#262626;" transform="translate(59.439062 327.204639)scale(0.1 -0.1)">
       <use xlink:href="#ArialMT-48"/>
      </g>
     </g>
    </g>
    <g id="ytick_2">
     <g id="line2d_19">
      <path clip-path="url(#p67512bc3aa)" d="M 72 260.87443 
L 518.4 260.87443 
" style="fill:none;stroke:#ffffff;stroke-linecap:round;"/>
     </g>
     <g id="line2d_20"/>
     <g id="text_11">
      <!-- 5 -->
      <g style="fill:#262626;" transform="translate(59.439062 264.453336)scale(0.1 -0.1)">
       <use xlink:href="#ArialMT-53"/>
      </g>
     </g>
    </g>
    <g id="ytick_3">
     <g id="line2d_21">
      <path clip-path="url(#p67512bc3aa)" d="M 72 198.123127 
L 518.4 198.123127 
" style="fill:none;stroke:#ffffff;stroke-linecap:round;"/>
     </g>
     <g id="line2d_22"/>
     <g id="text_12">
      <!-- 10 -->
      <g style="fill:#262626;" transform="translate(53.878125 201.702033)scale(0.1 -0.1)">
       <use xlink:href="#ArialMT-49"/>
       <use x="55.615234" xlink:href="#ArialMT-48"/>
      </g>
     </g>
    </g>
    <g id="ytick_4">
     <g id="line2d_23">
      <path clip-path="url(#p67512bc3aa)" d="M 72 135.371824 
L 518.4 135.371824 
" style="fill:none;stroke:#ffffff;stroke-linecap:round;"/>
     </g>
     <g id="line2d_24"/>
     <g id="text_13">
      <!-- 15 -->
      <g style="fill:#262626;" transform="translate(53.878125 138.95073)scale(0.1 -0.1)">
       <use xlink:href="#ArialMT-49"/>
       <use x="55.615234" xlink:href="#ArialMT-53"/>
      </g>
     </g>
    </g>
    <g id="ytick_5">
     <g id="line2d_25">
      <path clip-path="url(#p67512bc3aa)" d="M 72 72.620521 
L 518.4 72.620521 
" style="fill:none;stroke:#ffffff;stroke-linecap:round;"/>
     </g>
     <g id="line2d_26"/>
     <g id="text_14">
      <!-- 20 -->
      <g style="fill:#262626;" transform="translate(53.878125 76.199427)scale(0.1 -0.1)">
       <use xlink:href="#ArialMT-50"/>
       <use x="55.615234" xlink:href="#ArialMT-48"/>
      </g>
     </g>
    </g>
    <g id="text_15">
     <!-- DNA/kb -->
     <g style="fill:#262626;" transform="translate(47.691875 218.929219)rotate(-90)scale(0.11 -0.11)">
      <defs>
       <path d="M 7.71875 0 
L 7.71875 71.578125 
L 32.375 71.578125 
Q 40.71875 71.578125 45.125 70.5625 
Q 51.265625 69.140625 55.609375 65.4375 
Q 61.28125 60.640625 64.078125 53.1875 
Q 66.890625 45.75 66.890625 36.1875 
Q 66.890625 28.03125 64.984375 21.734375 
Q 63.09375 15.4375 60.109375 11.296875 
Q 57.125 7.171875 53.578125 4.796875 
Q 50.046875 2.4375 45.046875 1.21875 
Q 40.046875 0 33.546875 0 
z
M 17.1875 8.453125 
L 32.46875 8.453125 
Q 39.546875 8.453125 43.578125 9.765625 
Q 47.609375 11.078125 50 13.484375 
Q 53.375 16.84375 55.25 22.53125 
Q 57.125 28.21875 57.125 36.328125 
Q 57.125 47.5625 53.4375 53.59375 
Q 49.75 59.625 44.484375 61.671875 
Q 40.671875 63.140625 32.234375 63.140625 
L 17.1875 63.140625 
z
" id="ArialMT-68"/>
       <path d="M -0.140625 0 
L 27.34375 71.578125 
L 37.546875 71.578125 
L 66.84375 0 
L 56.0625 0 
L 47.703125 21.6875 
L 17.78125 21.6875 
L 9.90625 0 
z
M 20.515625 29.390625 
L 44.78125 29.390625 
L 37.3125 49.21875 
Q 33.890625 58.25 32.234375 64.0625 
Q 30.859375 57.171875 28.375 50.390625 
z
" id="ArialMT-65"/>
       <path d="M 0 -1.21875 
L 20.75 72.796875 
L 27.78125 72.796875 
L 7.078125 -1.21875 
z
" id="ArialMT-47"/>
       <path d="M 6.640625 0 
L 6.640625 71.578125 
L 15.4375 71.578125 
L 15.4375 30.765625 
L 36.234375 51.859375 
L 47.609375 51.859375 
L 27.78125 32.625 
L 49.609375 0 
L 38.765625 0 
L 21.625 26.515625 
L 15.4375 20.5625 
L 15.4375 0 
z
" id="ArialMT-107"/>
      </defs>
      <use xlink:href="#ArialMT-68"/>
      <use x="72.216797" xlink:href="#ArialMT-78"/>
      <use x="144.433594" xlink:href="#ArialMT-65"/>
      <use x="211.132812" xlink:href="#ArialMT-47"/>
      <use x="238.916016" xlink:href="#ArialMT-107"/>
      <use x="288.916016" xlink:href="#ArialMT-98"/>
     </g>
    </g>
   </g>
   <g id="line2d_27">
    <defs>
     <path d="M 0 2.5 
C 0.663008 2.5 1.29895 2.236584 1.767767 1.767767 
C 2.236584 1.29895 2.5 0.663008 2.5 0 
C 2.5 -0.663008 2.236584 -1.29895 1.767767 -1.767767 
C 1.29895 -2.236584 0.663008 -2.5 0 -2.5 
C -0.663008 -2.5 -1.29895 -2.236584 -1.767767 -1.767767 
C -2.236584 -1.29895 -2.5 -0.663008 -2.5 0 
C -2.5 0.663008 -2.236584 1.29895 -1.767767 1.767767 
C -1.29895 2.236584 -0.663008 2.5 0 2.5 
z
" id="m3c6f594d39"/>
    </defs>
    <g clip-path="url(#p67512bc3aa)">
     <use style="fill:#008000;" x="92.290909" xlink:href="#m3c6f594d39" y="325.611354"/>
     <use style="fill:#008000;" x="94.720958" xlink:href="#m3c6f594d39" y="272.751448"/>
     <use style="fill:#008000;" x="97.151007" xlink:href="#m3c6f594d39" y="303.070534"/>
     <use style="fill:#008000;" x="102.011105" xlink:href="#m3c6f594d39" y="238.281311"/>
     <use style="fill:#008000;" x="104.441154" xlink:href="#m3c6f594d39" y="267.72434"/>
     <use style="fill:#008000;" x="106.871203" xlink:href="#m3c6f594d39" y="251.44237"/>
     <use style="fill:#008000;" x="109.301252" xlink:href="#m3c6f594d39" y="270.852339"/>
     <use style="fill:#008000;" x="111.731301" xlink:href="#m3c6f594d39" y="312.908331"/>
     <use style="fill:#008000;" x="114.16135" xlink:href="#m3c6f594d39" y="195.134154"/>
     <use style="fill:#008000;" x="116.591399" xlink:href="#m3c6f594d39" y="276.249063"/>
     <use style="fill:#008000;" x="119.021448" xlink:href="#m3c6f594d39" y="271.020207"/>
     <use style="fill:#008000;" x="121.451497" xlink:href="#m3c6f594d39" y="261.178825"/>
     <use style="fill:#008000;" x="123.881546" xlink:href="#m3c6f594d39" y="255.20457"/>
     <use style="fill:#008000;" x="126.311595" xlink:href="#m3c6f594d39" y="278.62158"/>
     <use style="fill:#008000;" x="128.741644" xlink:href="#m3c6f594d39" y="230.642313"/>
     <use style="fill:#008000;" x="131.171693" xlink:href="#m3c6f594d39" y="244.610964"/>
     <use style="fill:#008000;" x="133.601742" xlink:href="#m3c6f594d39" y="216.983769"/>
     <use style="fill:#008000;" x="136.031791" xlink:href="#m3c6f594d39" y="241.191498"/>
     <use style="fill:#008000;" x="138.46184" xlink:href="#m3c6f594d39" y="248.903128"/>
     <use style="fill:#008000;" x="140.891889" xlink:href="#m3c6f594d39" y="223.731812"/>
     <use style="fill:#008000;" x="143.321938" xlink:href="#m3c6f594d39" y="226.579848"/>
     <use style="fill:#008000;" x="145.751987" xlink:href="#m3c6f594d39" y="224.154945"/>
     <use style="fill:#008000;" x="148.182036" xlink:href="#m3c6f594d39" y="223.075185"/>
     <use style="fill:#008000;" x="150.612085" xlink:href="#m3c6f594d39" y="221.356704"/>
     <use style="fill:#008000;" x="153.042134" xlink:href="#m3c6f594d39" y="208.190193"/>
     <use style="fill:#008000;" x="155.472183" xlink:href="#m3c6f594d39" y="216.347148"/>
     <use style="fill:#008000;" x="157.902232" xlink:href="#m3c6f594d39" y="220.83539"/>
     <use style="fill:#008000;" x="160.332281" xlink:href="#m3c6f594d39" y="214.48142"/>
     <use style="fill:#008000;" x="162.76233" xlink:href="#m3c6f594d39" y="237.388449"/>
     <use style="fill:#008000;" x="165.192379" xlink:href="#m3c6f594d39" y="231.481269"/>
     <use style="fill:#008000;" x="167.622428" xlink:href="#m3c6f594d39" y="233.436407"/>
     <use style="fill:#008000;" x="170.052477" xlink:href="#m3c6f594d39" y="217.124826"/>
     <use style="fill:#008000;" x="172.482526" xlink:href="#m3c6f594d39" y="201.536489"/>
     <use style="fill:#008000;" x="174.912575" xlink:href="#m3c6f594d39" y="215.514291"/>
     <use style="fill:#008000;" x="177.342624" xlink:href="#m3c6f594d39" y="225.165671"/>
     <use style="fill:#008000;" x="179.772673" xlink:href="#m3c6f594d39" y="188.087938"/>
     <use style="fill:#008000;" x="182.202722" xlink:href="#m3c6f594d39" y="213.777626"/>
     <use style="fill:#008000;" x="184.632771" xlink:href="#m3c6f594d39" y="217.988627"/>
     <use style="fill:#008000;" x="187.06282" xlink:href="#m3c6f594d39" y="195.646449"/>
     <use style="fill:#008000;" x="189.492869" xlink:href="#m3c6f594d39" y="198.483673"/>
     <use style="fill:#008000;" x="191.922918" xlink:href="#m3c6f594d39" y="187.868611"/>
     <use style="fill:#008000;" x="194.352967" xlink:href="#m3c6f594d39" y="182.034178"/>
     <use style="fill:#008000;" x="196.783016" xlink:href="#m3c6f594d39" y="209.4792"/>
     <use style="fill:#008000;" x="199.213065" xlink:href="#m3c6f594d39" y="187.188411"/>
     <use style="fill:#008000;" x="201.643114" xlink:href="#m3c6f594d39" y="181.424442"/>
     <use style="fill:#008000;" x="204.073163" xlink:href="#m3c6f594d39" y="165.376086"/>
     <use style="fill:#008000;" x="206.503212" xlink:href="#m3c6f594d39" y="176.044707"/>
     <use style="fill:#008000;" x="208.933261" xlink:href="#m3c6f594d39" y="197.068266"/>
     <use style="fill:#008000;" x="211.36331" xlink:href="#m3c6f594d39" y="164.627889"/>
     <use style="fill:#008000;" x="213.793359" xlink:href="#m3c6f594d39" y="167.711559"/>
     <use style="fill:#008000;" x="216.223408" xlink:href="#m3c6f594d39" y="197.457662"/>
     <use style="fill:#008000;" x="218.653457" xlink:href="#m3c6f594d39" y="169.93418"/>
     <use style="fill:#008000;" x="221.083506" xlink:href="#m3c6f594d39" y="164.046459"/>
     <use style="fill:#008000;" x="223.513555" xlink:href="#m3c6f594d39" y="176.076944"/>
     <use style="fill:#008000;" x="225.943604" xlink:href="#m3c6f594d39" y="176.735893"/>
     <use style="fill:#008000;" x="228.373653" xlink:href="#m3c6f594d39" y="199.416471"/>
     <use style="fill:#008000;" x="230.803702" xlink:href="#m3c6f594d39" y="167.009835"/>
     <use style="fill:#008000;" x="233.233751" xlink:href="#m3c6f594d39" y="177.549938"/>
     <use style="fill:#008000;" x="235.6638" xlink:href="#m3c6f594d39" y="152.65981"/>
     <use style="fill:#008000;" x="238.093849" xlink:href="#m3c6f594d39" y="152.386181"/>
     <use style="fill:#008000;" x="240.523898" xlink:href="#m3c6f594d39" y="174.086248"/>
     <use style="fill:#008000;" x="242.953947" xlink:href="#m3c6f594d39" y="176.730336"/>
     <use style="fill:#008000;" x="245.383996" xlink:href="#m3c6f594d39" y="184.664918"/>
     <use style="fill:#008000;" x="247.814045" xlink:href="#m3c6f594d39" y="166.218382"/>
     <use style="fill:#008000;" x="250.244094" xlink:href="#m3c6f594d39" y="162.524615"/>
     <use style="fill:#008000;" x="252.674143" xlink:href="#m3c6f594d39" y="169.832565"/>
     <use style="fill:#008000;" x="255.104192" xlink:href="#m3c6f594d39" y="170.841088"/>
     <use style="fill:#008000;" x="257.534241" xlink:href="#m3c6f594d39" y="201.58471"/>
     <use style="fill:#008000;" x="259.96429" xlink:href="#m3c6f594d39" y="159.481676"/>
     <use style="fill:#008000;" x="262.394339" xlink:href="#m3c6f594d39" y="154.068904"/>
     <use style="fill:#008000;" x="264.824388" xlink:href="#m3c6f594d39" y="155.004838"/>
     <use style="fill:#008000;" x="267.254437" xlink:href="#m3c6f594d39" y="166.565645"/>
     <use style="fill:#008000;" x="269.684486" xlink:href="#m3c6f594d39" y="174.220611"/>
     <use style="fill:#008000;" x="272.114535" xlink:href="#m3c6f594d39" y="175.487556"/>
     <use style="fill:#008000;" x="274.544584" xlink:href="#m3c6f594d39" y="160.816133"/>
     <use style="fill:#008000;" x="276.974633" xlink:href="#m3c6f594d39" y="172.732097"/>
     <use style="fill:#008000;" x="279.404682" xlink:href="#m3c6f594d39" y="171.806979"/>
     <use style="fill:#008000;" x="281.834731" xlink:href="#m3c6f594d39" y="163.608893"/>
     <use style="fill:#008000;" x="284.26478" xlink:href="#m3c6f594d39" y="151.360061"/>
     <use style="fill:#008000;" x="286.694829" xlink:href="#m3c6f594d39" y="168.749729"/>
     <use style="fill:#008000;" x="289.124878" xlink:href="#m3c6f594d39" y="149.570629"/>
     <use style="fill:#008000;" x="291.554927" xlink:href="#m3c6f594d39" y="146.368806"/>
     <use style="fill:#008000;" x="293.984976" xlink:href="#m3c6f594d39" y="174.841721"/>
     <use style="fill:#008000;" x="296.415024" xlink:href="#m3c6f594d39" y="151.889326"/>
     <use style="fill:#008000;" x="298.845073" xlink:href="#m3c6f594d39" y="162.898664"/>
     <use style="fill:#008000;" x="301.275122" xlink:href="#m3c6f594d39" y="148.443097"/>
     <use style="fill:#008000;" x="303.705171" xlink:href="#m3c6f594d39" y="154.607946"/>
     <use style="fill:#008000;" x="306.13522" xlink:href="#m3c6f594d39" y="142.038607"/>
     <use style="fill:#008000;" x="308.565269" xlink:href="#m3c6f594d39" y="138.972575"/>
     <use style="fill:#008000;" x="310.995318" xlink:href="#m3c6f594d39" y="162.591586"/>
     <use style="fill:#008000;" x="313.425367" xlink:href="#m3c6f594d39" y="159.768145"/>
     <use style="fill:#008000;" x="315.855416" xlink:href="#m3c6f594d39" y="158.081742"/>
     <use style="fill:#008000;" x="318.285465" xlink:href="#m3c6f594d39" y="138.851912"/>
     <use style="fill:#008000;" x="320.715514" xlink:href="#m3c6f594d39" y="156.304418"/>
     <use style="fill:#008000;" x="323.145563" xlink:href="#m3c6f594d39" y="149.694615"/>
     <use style="fill:#008000;" x="325.575612" xlink:href="#m3c6f594d39" y="143.335301"/>
     <use style="fill:#008000;" x="328.005661" xlink:href="#m3c6f594d39" y="153.661322"/>
     <use style="fill:#008000;" x="330.43571" xlink:href="#m3c6f594d39" y="164.265576"/>
     <use style="fill:#008000;" x="332.865759" xlink:href="#m3c6f594d39" y="129.85031"/>
     <use style="fill:#008000;" x="335.295808" xlink:href="#m3c6f594d39" y="139.094479"/>
     <use style="fill:#008000;" x="337.725857" xlink:href="#m3c6f594d39" y="140.215418"/>
     <use style="fill:#008000;" x="340.155906" xlink:href="#m3c6f594d39" y="144.16965"/>
     <use style="fill:#008000;" x="342.585955" xlink:href="#m3c6f594d39" y="151.832197"/>
     <use style="fill:#008000;" x="345.016004" xlink:href="#m3c6f594d39" y="167.804348"/>
     <use style="fill:#008000;" x="347.446053" xlink:href="#m3c6f594d39" y="143.212816"/>
     <use style="fill:#008000;" x="349.876102" xlink:href="#m3c6f594d39" y="152.882331"/>
     <use style="fill:#008000;" x="352.306151" xlink:href="#m3c6f594d39" y="148.847465"/>
     <use style="fill:#008000;" x="354.7362" xlink:href="#m3c6f594d39" y="120.261148"/>
     <use style="fill:#008000;" x="357.166249" xlink:href="#m3c6f594d39" y="114.868416"/>
     <use style="fill:#008000;" x="359.596298" xlink:href="#m3c6f594d39" y="117.378077"/>
     <use style="fill:#008000;" x="362.026347" xlink:href="#m3c6f594d39" y="158.694077"/>
     <use style="fill:#008000;" x="364.456396" xlink:href="#m3c6f594d39" y="147.732772"/>
     <use style="fill:#008000;" x="366.886445" xlink:href="#m3c6f594d39" y="163.359301"/>
     <use style="fill:#008000;" x="369.316494" xlink:href="#m3c6f594d39" y="174.095678"/>
     <use style="fill:#008000;" x="371.746543" xlink:href="#m3c6f594d39" y="123.12416"/>
     <use style="fill:#008000;" x="374.176592" xlink:href="#m3c6f594d39" y="145.930033"/>
     <use style="fill:#008000;" x="376.606641" xlink:href="#m3c6f594d39" y="132.744085"/>
     <use style="fill:#008000;" x="379.03669" xlink:href="#m3c6f594d39" y="151.708097"/>
     <use style="fill:#008000;" x="381.466739" xlink:href="#m3c6f594d39" y="168.298552"/>
     <use style="fill:#008000;" x="383.896788" xlink:href="#m3c6f594d39" y="120.551539"/>
     <use style="fill:#008000;" x="386.326837" xlink:href="#m3c6f594d39" y="116.314274"/>
     <use style="fill:#008000;" x="388.756886" xlink:href="#m3c6f594d39" y="124.829311"/>
     <use style="fill:#008000;" x="391.186935" xlink:href="#m3c6f594d39" y="165.348582"/>
     <use style="fill:#008000;" x="393.616984" xlink:href="#m3c6f594d39" y="137.146843"/>
     <use style="fill:#008000;" x="396.047033" xlink:href="#m3c6f594d39" y="135.741741"/>
     <use style="fill:#008000;" x="398.477082" xlink:href="#m3c6f594d39" y="118.162482"/>
     <use style="fill:#008000;" x="400.907131" xlink:href="#m3c6f594d39" y="133.371001"/>
     <use style="fill:#008000;" x="403.33718" xlink:href="#m3c6f594d39" y="132.490258"/>
     <use style="fill:#008000;" x="405.767229" xlink:href="#m3c6f594d39" y="119.105663"/>
     <use style="fill:#008000;" x="408.197278" xlink:href="#m3c6f594d39" y="156.214962"/>
     <use style="fill:#008000;" x="410.627327" xlink:href="#m3c6f594d39" y="126.516027"/>
     <use style="fill:#008000;" x="413.057376" xlink:href="#m3c6f594d39" y="147.807385"/>
     <use style="fill:#008000;" x="415.487425" xlink:href="#m3c6f594d39" y="137.325768"/>
     <use style="fill:#008000;" x="417.917474" xlink:href="#m3c6f594d39" y="144.448745"/>
     <use style="fill:#008000;" x="420.347523" xlink:href="#m3c6f594d39" y="128.903379"/>
     <use style="fill:#008000;" x="422.777572" xlink:href="#m3c6f594d39" y="104.793863"/>
     <use style="fill:#008000;" x="425.207621" xlink:href="#m3c6f594d39" y="112.407658"/>
     <use style="fill:#008000;" x="427.63767" xlink:href="#m3c6f594d39" y="134.354475"/>
     <use style="fill:#008000;" x="430.067719" xlink:href="#m3c6f594d39" y="121.267096"/>
     <use style="fill:#008000;" x="432.497768" xlink:href="#m3c6f594d39" y="107.1718"/>
     <use style="fill:#008000;" x="434.927817" xlink:href="#m3c6f594d39" y="121.973544"/>
     <use style="fill:#008000;" x="437.357866" xlink:href="#m3c6f594d39" y="105.993459"/>
     <use style="fill:#008000;" x="439.787915" xlink:href="#m3c6f594d39" y="140.897147"/>
     <use style="fill:#008000;" x="442.217964" xlink:href="#m3c6f594d39" y="124.600695"/>
     <use style="fill:#008000;" x="444.648013" xlink:href="#m3c6f594d39" y="121.759757"/>
     <use style="fill:#008000;" x="447.078062" xlink:href="#m3c6f594d39" y="113.070173"/>
     <use style="fill:#008000;" x="449.508111" xlink:href="#m3c6f594d39" y="129.158483"/>
     <use style="fill:#008000;" x="451.93816" xlink:href="#m3c6f594d39" y="101.733696"/>
     <use style="fill:#008000;" x="454.368209" xlink:href="#m3c6f594d39" y="126.454662"/>
     <use style="fill:#008000;" x="456.798258" xlink:href="#m3c6f594d39" y="106.567156"/>
     <use style="fill:#008000;" x="459.228307" xlink:href="#m3c6f594d39" y="122.195089"/>
     <use style="fill:#008000;" x="461.658356" xlink:href="#m3c6f594d39" y="140.818399"/>
     <use style="fill:#008000;" x="464.088405" xlink:href="#m3c6f594d39" y="129.034144"/>
     <use style="fill:#008000;" x="466.518454" xlink:href="#m3c6f594d39" y="98.650672"/>
     <use style="fill:#008000;" x="468.948503" xlink:href="#m3c6f594d39" y="138.630563"/>
     <use style="fill:#008000;" x="471.378552" xlink:href="#m3c6f594d39" y="117.779312"/>
     <use style="fill:#008000;" x="473.808601" xlink:href="#m3c6f594d39" y="118.797649"/>
     <use style="fill:#008000;" x="476.23865" xlink:href="#m3c6f594d39" y="137.446538"/>
     <use style="fill:#008000;" x="478.668699" xlink:href="#m3c6f594d39" y="127.337342"/>
     <use style="fill:#008000;" x="481.098748" xlink:href="#m3c6f594d39" y="131.160602"/>
     <use style="fill:#008000;" x="483.528797" xlink:href="#m3c6f594d39" y="127.744845"/>
     <use style="fill:#008000;" x="485.958846" xlink:href="#m3c6f594d39" y="133.730348"/>
     <use style="fill:#008000;" x="488.388895" xlink:href="#m3c6f594d39" y="118.59131"/>
     <use style="fill:#008000;" x="490.818944" xlink:href="#m3c6f594d39" y="108.767727"/>
     <use style="fill:#008000;" x="493.248993" xlink:href="#m3c6f594d39" y="121.565005"/>
     <use style="fill:#008000;" x="495.679042" xlink:href="#m3c6f594d39" y="117.658925"/>
     <use style="fill:#008000;" x="498.109091" xlink:href="#m3c6f594d39" y="107.313445"/>
    </g>
   </g>
   <g id="line2d_28"/>
   <g id="line2d_29"/>
   <g id="line2d_30">
    <path clip-path="url(#p67512bc3aa)" d="M 92.290909 65.160946 
L 94.720958 61.179067 
L 97.151007 58.559942 
L 102.011105 57.30357 
L 104.441154 57.409951 
L 106.871203 58.879085 
L 109.301252 56.744062 
L 111.731301 64.908523 
L 114.16135 64.916589 
L 116.591399 75.921181 
L 119.021448 86.222226 
L 121.451497 90.624185 
L 123.881546 99.734094 
L 126.311595 92.951167 
L 128.741644 84.68274 
L 131.171693 78.038361 
L 133.601742 77.001501 
L 136.031791 80.951641 
L 138.46184 81.795995 
L 140.891889 93.331285 
L 143.321938 93.643949 
L 145.751987 98.362349 
L 148.182036 105.183961 
L 150.612085 104.921782 
L 153.042134 112.839272 
L 155.472183 115.049515 
L 157.902232 123.146233 
L 160.332281 129.786716 
L 162.76233 137.527545 
L 165.192379 136.845113 
L 167.622428 126.820758 
L 170.052477 122.998986 
L 172.482526 120.383851 
L 174.912575 118.763957 
L 177.342624 119.567687 
L 179.772673 121.023105 
L 182.202722 130.062168 
L 184.632771 132.913844 
L 187.06282 139.442254 
L 189.492869 136.258045 
L 194.352967 134.344877 
L 196.783016 127.249943 
L 199.213065 131.40628 
L 201.643114 135.342438 
L 204.073163 135.610877 
L 206.503212 139.622507 
L 208.933261 141.491873 
L 211.36331 149.992905 
L 213.793359 151.816366 
L 218.653457 170.036232 
L 221.083506 175.261793 
L 223.513555 185.626367 
L 225.943604 186.133365 
L 228.373653 178.525048 
L 230.803702 172.112928 
L 233.233751 163.992615 
L 235.6638 162.502252 
L 238.093849 157.5223 
L 240.523898 162.861798 
L 242.953947 167.042679 
L 245.383996 166.146601 
L 247.814045 172.816786 
L 250.244094 175.692635 
L 252.674143 167.092806 
L 255.104192 162.043243 
L 257.534241 153.084195 
L 259.96429 154.179313 
L 262.394339 156.031077 
L 264.824388 154.412855 
L 267.254437 157.925358 
L 269.684486 160.970586 
L 272.114535 169.16747 
L 274.544584 173.410546 
L 276.974633 170.594838 
L 279.404682 168.565882 
L 281.834731 159.125677 
L 284.26478 162.394461 
L 289.124878 153.082367 
L 291.554927 153.227454 
L 293.984976 156.486637 
L 296.415024 155.339488 
L 298.845073 151.122188 
L 301.275122 149.355866 
L 303.705171 143.899052 
L 306.13522 142.645542 
L 308.565269 140.43845 
L 310.995318 138.97693 
L 313.425367 139.604506 
L 315.855416 135.333367 
L 318.285465 140.514199 
L 320.715514 150.670835 
L 323.145563 150.938662 
L 325.575612 153.204222 
L 328.005661 152.912304 
L 330.43571 154.308392 
L 332.865759 146.374225 
L 335.295808 150.565694 
L 337.725857 150.691666 
L 340.155906 149.547653 
L 342.585955 158.079517 
L 345.016004 164.614585 
L 347.446053 160.305854 
L 349.876102 149.546106 
L 352.306151 141.209941 
L 354.7362 124.565161 
L 357.166249 118.345321 
L 359.596298 126.366253 
L 362.026347 128.649781 
L 364.456396 138.030278 
L 366.886445 149.926958 
L 369.316494 154.237622 
L 371.746543 167.431646 
L 374.176592 164.997531 
L 376.606641 163.930198 
L 379.03669 148.113249 
L 381.466739 148.800414 
L 383.896788 146.059293 
L 386.326837 137.695077 
L 388.756886 130.896761 
L 391.186935 127.544803 
L 393.616984 132.51571 
L 396.047033 138.576267 
L 398.477082 138.935093 
L 400.907131 138.818303 
L 403.33718 133.672277 
L 405.767229 136.564036 
L 408.197278 137.513373 
L 410.627327 134.831903 
L 413.057376 129.554448 
L 415.487425 129.166701 
L 417.917474 131.802228 
L 420.347523 125.436393 
L 422.777572 127.089578 
L 425.207621 123.142077 
L 427.63767 112.426689 
L 430.067719 113.960266 
L 432.497768 115.08013 
L 434.927817 114.164271 
L 437.357866 109.185627 
L 439.787915 115.032874 
L 442.217964 117.060571 
L 444.648013 118.317492 
L 447.078062 120.982839 
L 449.508111 113.3403 
L 451.93816 108.369556 
L 454.368209 115.231843 
L 456.798258 111.508572 
L 459.228307 118.317328 
L 461.658356 115.181844 
L 464.088405 119.932394 
L 466.518454 120.467358 
L 468.948503 123.048006 
L 471.378552 125.461886 
L 473.808601 119.082178 
L 476.23865 129.37108 
L 478.668699 135.975937 
L 481.098748 133.620923 
L 483.528797 144.106572 
L 485.958846 139.175659 
L 488.388895 134.835272 
L 490.818944 127.923395 
L 493.248993 118.440028 
L 495.679042 106.385171 
L 498.109091 91.758824 
L 498.109091 91.758824 
" style="fill:none;stroke:#bf00bf;stroke-linecap:round;stroke-width:1.75;"/>
   </g>
   <g id="patch_3">
    <path d="M 72 352.44 
L 72 47.52 
" style="fill:none;"/>
   </g>
   <g id="patch_4">
    <path d="M 518.4 352.44 
L 518.4 47.52 
" style="fill:none;"/>
   </g>
   <g id="patch_5">
    <path d="M 72 352.44 
L 518.4 352.44 
" style="fill:none;"/>
   </g>
   <g id="patch_6">
    <path d="M 72 47.52 
L 518.4 47.52 
" style="fill:none;"/>
   </g>
   <g id="legend_1">
    <g id="line2d_31">
     <path d="M 431.925 295.516562 
L 451.925 295.516562 
" style="fill:none;stroke:#008000;stroke-linecap:round;stroke-width:1.75;"/>
    </g>
    <g id="line2d_32"/>
    <g id="text_16">
     <!-- Peak -->
     <g style="fill:#262626;" transform="translate(459.925 299.016562)scale(0.1 -0.1)">
      <defs>
       <path d="M 7.71875 0 
L 7.71875 71.578125 
L 34.71875 71.578125 
Q 41.84375 71.578125 45.609375 70.90625 
Q 50.875 70.015625 54.4375 67.546875 
Q 58.015625 65.09375 60.1875 60.640625 
Q 62.359375 56.203125 62.359375 50.875 
Q 62.359375 41.75 56.546875 35.421875 
Q 50.734375 29.109375 35.546875 29.109375 
L 17.1875 29.109375 
L 17.1875 0 
z
M 17.1875 37.546875 
L 35.6875 37.546875 
Q 44.875 37.546875 48.734375 40.96875 
Q 52.59375 44.390625 52.59375 50.59375 
Q 52.59375 55.078125 50.3125 58.265625 
Q 48.046875 61.46875 44.34375 62.5 
Q 41.9375 63.140625 35.5 63.140625 
L 17.1875 63.140625 
z
" id="ArialMT-80"/>
      </defs>
      <use xlink:href="#ArialMT-80"/>
      <use x="66.699219" xlink:href="#ArialMT-101"/>
      <use x="122.314453" xlink:href="#ArialMT-97"/>
      <use x="177.929688" xlink:href="#ArialMT-107"/>
     </g>
    </g>
    <g id="line2d_33">
     <path d="M 431.925 309.661875 
L 451.925 309.661875 
" style="fill:none;stroke:#ff0000;stroke-linecap:round;stroke-width:1.75;"/>
    </g>
    <g id="line2d_34"/>
    <g id="text_17">
     <!-- Peak Up -->
     <g style="fill:#262626;" transform="translate(459.925 313.161875)scale(0.1 -0.1)">
      <defs>
       <path d="M 54.6875 71.578125 
L 64.15625 71.578125 
L 64.15625 30.21875 
Q 64.15625 19.4375 61.71875 13.078125 
Q 59.28125 6.734375 52.90625 2.75 
Q 46.53125 -1.21875 36.1875 -1.21875 
Q 26.125 -1.21875 19.71875 2.25 
Q 13.328125 5.71875 10.59375 12.28125 
Q 7.859375 18.84375 7.859375 30.21875 
L 7.859375 71.578125 
L 17.328125 71.578125 
L 17.328125 30.28125 
Q 17.328125 20.953125 19.0625 16.53125 
Q 20.796875 12.109375 25.015625 9.71875 
Q 29.25 7.328125 35.359375 7.328125 
Q 45.796875 7.328125 50.234375 12.0625 
Q 54.6875 16.796875 54.6875 30.28125 
z
" id="ArialMT-85"/>
       <path d="M 6.59375 -19.875 
L 6.59375 51.859375 
L 14.59375 51.859375 
L 14.59375 45.125 
Q 17.4375 49.078125 21 51.046875 
Q 24.5625 53.03125 29.640625 53.03125 
Q 36.28125 53.03125 41.359375 49.609375 
Q 46.4375 46.1875 49.015625 39.953125 
Q 51.609375 33.734375 51.609375 26.3125 
Q 51.609375 18.359375 48.75 11.984375 
Q 45.90625 5.609375 40.453125 2.21875 
Q 35.015625 -1.171875 29 -1.171875 
Q 24.609375 -1.171875 21.109375 0.6875 
Q 17.625 2.546875 15.375 5.375 
L 15.375 -19.875 
z
M 14.546875 25.640625 
Q 14.546875 15.625 18.59375 10.84375 
Q 22.65625 6.0625 28.421875 6.0625 
Q 34.28125 6.0625 38.453125 11.015625 
Q 42.625 15.96875 42.625 26.375 
Q 42.625 36.28125 38.546875 41.203125 
Q 34.46875 46.140625 28.8125 46.140625 
Q 23.1875 46.140625 18.859375 40.890625 
Q 14.546875 35.640625 14.546875 25.640625 
z
" id="ArialMT-112"/>
      </defs>
      <use xlink:href="#ArialMT-80"/>
      <use x="66.699219" xlink:href="#ArialMT-101"/>
      <use x="122.314453" xlink:href="#ArialMT-97"/>
      <use x="177.929688" xlink:href="#ArialMT-107"/>
      <use x="227.929688" xlink:href="#ArialMT-32"/>
      <use x="255.712891" xlink:href="#ArialMT-85"/>
      <use x="327.929688" xlink:href="#ArialMT-112"/>
     </g>
    </g>
    <g id="line2d_35">
     <path d="M 431.925 323.807187 
L 451.925 323.807187 
" style="fill:none;stroke:#0000ff;stroke-linecap:round;stroke-width:1.75;"/>
    </g>
    <g id="line2d_36"/>
    <g id="text_18">
     <!-- Peak down -->
     <g style="fill:#262626;" transform="translate(459.925 327.307187)scale(0.1 -0.1)">
      <defs>
       <path d="M 40.234375 0 
L 40.234375 6.546875 
Q 35.296875 -1.171875 25.734375 -1.171875 
Q 19.53125 -1.171875 14.328125 2.25 
Q 9.125 5.671875 6.265625 11.796875 
Q 3.421875 17.921875 3.421875 25.875 
Q 3.421875 33.640625 6 39.96875 
Q 8.59375 46.296875 13.765625 49.65625 
Q 18.953125 53.03125 25.34375 53.03125 
Q 30.03125 53.03125 33.6875 51.046875 
Q 37.359375 49.078125 39.65625 45.90625 
L 39.65625 71.578125 
L 48.390625 71.578125 
L 48.390625 0 
z
M 12.453125 25.875 
Q 12.453125 15.921875 16.640625 10.984375 
Q 20.84375 6.0625 26.5625 6.0625 
Q 32.328125 6.0625 36.34375 10.765625 
Q 40.375 15.484375 40.375 25.140625 
Q 40.375 35.796875 36.265625 40.765625 
Q 32.171875 45.75 26.171875 45.75 
Q 20.3125 45.75 16.375 40.96875 
Q 12.453125 36.1875 12.453125 25.875 
z
" id="ArialMT-100"/>
       <path d="M 3.328125 25.921875 
Q 3.328125 40.328125 11.328125 47.265625 
Q 18.015625 53.03125 27.640625 53.03125 
Q 38.328125 53.03125 45.109375 46.015625 
Q 51.90625 39.015625 51.90625 26.65625 
Q 51.90625 16.65625 48.90625 10.90625 
Q 45.90625 5.171875 40.15625 2 
Q 34.421875 -1.171875 27.640625 -1.171875 
Q 16.75 -1.171875 10.03125 5.8125 
Q 3.328125 12.796875 3.328125 25.921875 
z
M 12.359375 25.921875 
Q 12.359375 15.96875 16.703125 11.015625 
Q 21.046875 6.0625 27.640625 6.0625 
Q 34.1875 6.0625 38.53125 11.03125 
Q 42.875 16.015625 42.875 26.21875 
Q 42.875 35.84375 38.5 40.796875 
Q 34.125 45.75 27.640625 45.75 
Q 21.046875 45.75 16.703125 40.8125 
Q 12.359375 35.890625 12.359375 25.921875 
z
" id="ArialMT-111"/>
       <path d="M 16.15625 0 
L 0.296875 51.859375 
L 9.375 51.859375 
L 17.625 21.921875 
L 20.703125 10.796875 
Q 20.90625 11.625 23.390625 21.484375 
L 31.640625 51.859375 
L 40.671875 51.859375 
L 48.4375 21.78125 
L 51.03125 11.859375 
L 54 21.875 
L 62.890625 51.859375 
L 71.4375 51.859375 
L 55.21875 0 
L 46.09375 0 
L 37.84375 31.0625 
L 35.84375 39.890625 
L 25.34375 0 
z
" id="ArialMT-119"/>
       <path d="M 6.59375 0 
L 6.59375 51.859375 
L 14.5 51.859375 
L 14.5 44.484375 
Q 20.21875 53.03125 31 53.03125 
Q 35.6875 53.03125 39.625 51.34375 
Q 43.5625 49.65625 45.515625 46.921875 
Q 47.46875 44.1875 48.25 40.4375 
Q 48.734375 37.984375 48.734375 31.890625 
L 48.734375 0 
L 39.9375 0 
L 39.9375 31.546875 
Q 39.9375 36.921875 38.90625 39.578125 
Q 37.890625 42.234375 35.28125 43.8125 
Q 32.671875 45.40625 29.15625 45.40625 
Q 23.53125 45.40625 19.453125 41.84375 
Q 15.375 38.28125 15.375 28.328125 
L 15.375 0 
z
" id="ArialMT-110"/>
      </defs>
      <use xlink:href="#ArialMT-80"/>
      <use x="66.699219" xlink:href="#ArialMT-101"/>
      <use x="122.314453" xlink:href="#ArialMT-97"/>
      <use x="177.929688" xlink:href="#ArialMT-107"/>
      <use x="227.929688" xlink:href="#ArialMT-32"/>
      <use x="255.712891" xlink:href="#ArialMT-100"/>
      <use x="311.328125" xlink:href="#ArialMT-111"/>
      <use x="366.943359" xlink:href="#ArialMT-119"/>
      <use x="439.160156" xlink:href="#ArialMT-110"/>
     </g>
    </g>
    <g id="line2d_37">
     <path d="M 431.925 337.9525 
L 451.925 337.9525 
" style="fill:none;stroke:#bf00bf;stroke-linecap:round;stroke-width:1.75;"/>
    </g>
    <g id="line2d_38"/>
    <g id="text_19">
     <!-- SMol -->
     <g style="fill:#262626;" transform="translate(459.925 341.4525)scale(0.1 -0.1)">
      <defs>
       <path d="M 4.5 23 
L 13.421875 23.78125 
Q 14.0625 18.40625 16.375 14.96875 
Q 18.703125 11.53125 23.578125 9.40625 
Q 28.46875 7.28125 34.578125 7.28125 
Q 39.984375 7.28125 44.140625 8.890625 
Q 48.296875 10.5 50.3125 13.296875 
Q 52.34375 16.109375 52.34375 19.4375 
Q 52.34375 22.796875 50.390625 25.3125 
Q 48.4375 27.828125 43.953125 29.546875 
Q 41.0625 30.671875 31.203125 33.03125 
Q 21.34375 35.40625 17.390625 37.5 
Q 12.25 40.1875 9.734375 44.15625 
Q 7.234375 48.140625 7.234375 53.078125 
Q 7.234375 58.5 10.296875 63.203125 
Q 13.375 67.921875 19.28125 70.359375 
Q 25.203125 72.796875 32.421875 72.796875 
Q 40.375 72.796875 46.453125 70.234375 
Q 52.546875 67.671875 55.8125 62.6875 
Q 59.078125 57.71875 59.328125 51.421875 
L 50.25 50.734375 
Q 49.515625 57.515625 45.28125 60.984375 
Q 41.0625 64.453125 32.8125 64.453125 
Q 24.21875 64.453125 20.28125 61.296875 
Q 16.359375 58.15625 16.359375 53.71875 
Q 16.359375 49.859375 19.140625 47.359375 
Q 21.875 44.875 33.421875 42.265625 
Q 44.96875 39.65625 49.265625 37.703125 
Q 55.515625 34.8125 58.484375 30.390625 
Q 61.46875 25.984375 61.46875 20.21875 
Q 61.46875 14.5 58.203125 9.4375 
Q 54.9375 4.390625 48.796875 1.578125 
Q 42.671875 -1.21875 35.015625 -1.21875 
Q 25.296875 -1.21875 18.71875 1.609375 
Q 12.15625 4.4375 8.421875 10.125 
Q 4.6875 15.828125 4.5 23 
z
" id="ArialMT-83"/>
       <path d="M 7.421875 0 
L 7.421875 71.578125 
L 21.6875 71.578125 
L 38.625 20.90625 
Q 40.96875 13.8125 42.046875 10.296875 
Q 43.265625 14.203125 45.84375 21.78125 
L 62.984375 71.578125 
L 75.734375 71.578125 
L 75.734375 0 
L 66.609375 0 
L 66.609375 59.90625 
L 45.796875 0 
L 37.25 0 
L 16.546875 60.9375 
L 16.546875 0 
z
" id="ArialMT-77"/>
       <path d="M 6.390625 0 
L 6.390625 71.578125 
L 15.1875 71.578125 
L 15.1875 0 
z
" id="ArialMT-108"/>
      </defs>
      <use xlink:href="#ArialMT-83"/>
      <use x="66.699219" xlink:href="#ArialMT-77"/>
      <use x="150" xlink:href="#ArialMT-111"/>
      <use x="205.615234" xlink:href="#ArialMT-108"/>
     </g>
    </g>
   </g>
  </g>
  <g id="axes_2">
   <g id="matplotlib.axis_3">
    <g id="ytick_6">
     <g id="line2d_39">
      <path clip-path="url(#p67512bc3aa)" d="M 72 325.82383 
L 518.4 325.82383 
" style="fill:none;stroke:#ffffff;stroke-linecap:round;"/>
     </g>
     <g id="line2d_40"/>
     <g id="text_20">
      <!-- 0.26 -->
      <g style="fill:#262626;" transform="translate(525.4 329.402737)scale(0.1 -0.1)">
       <defs>
        <path d="M 9.078125 0 
L 9.078125 10.015625 
L 19.09375 10.015625 
L 19.09375 0 
z
" id="ArialMT-46"/>
        <path d="M 49.75 54.046875 
L 41.015625 53.375 
Q 39.84375 58.546875 37.703125 60.890625 
Q 34.125 64.65625 28.90625 64.65625 
Q 24.703125 64.65625 21.53125 62.3125 
Q 17.390625 59.28125 14.984375 53.46875 
Q 12.59375 47.65625 12.5 36.921875 
Q 15.671875 41.75 20.265625 44.09375 
Q 24.859375 46.4375 29.890625 46.4375 
Q 38.671875 46.4375 44.84375 39.96875 
Q 51.03125 33.5 51.03125 23.25 
Q 51.03125 16.5 48.125 10.71875 
Q 45.21875 4.9375 40.140625 1.859375 
Q 35.0625 -1.21875 28.609375 -1.21875 
Q 17.625 -1.21875 10.6875 6.859375 
Q 3.765625 14.9375 3.765625 33.5 
Q 3.765625 54.25 11.421875 63.671875 
Q 18.109375 71.875 29.4375 71.875 
Q 37.890625 71.875 43.28125 67.140625 
Q 48.6875 62.40625 49.75 54.046875 
z
M 13.875 23.1875 
Q 13.875 18.65625 15.796875 14.5 
Q 17.71875 10.359375 21.1875 8.171875 
Q 24.65625 6 28.46875 6 
Q 34.03125 6 38.03125 10.484375 
Q 42.046875 14.984375 42.046875 22.703125 
Q 42.046875 30.125 38.078125 34.390625 
Q 34.125 38.671875 28.125 38.671875 
Q 22.171875 38.671875 18.015625 34.390625 
Q 13.875 30.125 13.875 23.1875 
z
" id="ArialMT-54"/>
       </defs>
       <use xlink:href="#ArialMT-48"/>
       <use x="55.615234" xlink:href="#ArialMT-46"/>
       <use x="83.398438" xlink:href="#ArialMT-50"/>
       <use x="139.013672" xlink:href="#ArialMT-54"/>
      </g>
     </g>
    </g>
    <g id="ytick_7">
     <g id="line2d_41">
      <path clip-path="url(#p67512bc3aa)" d="M 72 287.614634 
L 518.4 287.614634 
" style="fill:none;stroke:#ffffff;stroke-linecap:round;"/>
     </g>
     <g id="line2d_42"/>
     <g id="text_21">
      <!-- 0.28 -->
      <g style="fill:#262626;" transform="translate(525.4 291.19354)scale(0.1 -0.1)">
       <defs>
        <path d="M 17.671875 38.8125 
Q 12.203125 40.828125 9.5625 44.53125 
Q 6.9375 48.25 6.9375 53.421875 
Q 6.9375 61.234375 12.546875 66.546875 
Q 18.171875 71.875 27.484375 71.875 
Q 36.859375 71.875 42.578125 66.421875 
Q 48.296875 60.984375 48.296875 53.171875 
Q 48.296875 48.1875 45.671875 44.5 
Q 43.0625 40.828125 37.75 38.8125 
Q 44.34375 36.671875 47.78125 31.875 
Q 51.21875 27.09375 51.21875 20.453125 
Q 51.21875 11.28125 44.71875 5.03125 
Q 38.234375 -1.21875 27.640625 -1.21875 
Q 17.046875 -1.21875 10.546875 5.046875 
Q 4.046875 11.328125 4.046875 20.703125 
Q 4.046875 27.6875 7.59375 32.390625 
Q 11.140625 37.109375 17.671875 38.8125 
z
M 15.921875 53.71875 
Q 15.921875 48.640625 19.1875 45.40625 
Q 22.46875 42.1875 27.6875 42.1875 
Q 32.765625 42.1875 36.015625 45.375 
Q 39.265625 48.578125 39.265625 53.21875 
Q 39.265625 58.0625 35.90625 61.359375 
Q 32.5625 64.65625 27.59375 64.65625 
Q 22.5625 64.65625 19.234375 61.421875 
Q 15.921875 58.203125 15.921875 53.71875 
z
M 13.09375 20.65625 
Q 13.09375 16.890625 14.875 13.375 
Q 16.65625 9.859375 20.171875 7.921875 
Q 23.6875 6 27.734375 6 
Q 34.03125 6 38.125 10.046875 
Q 42.234375 14.109375 42.234375 20.359375 
Q 42.234375 26.703125 38.015625 30.859375 
Q 33.796875 35.015625 27.4375 35.015625 
Q 21.234375 35.015625 17.15625 30.90625 
Q 13.09375 26.8125 13.09375 20.65625 
z
" id="ArialMT-56"/>
       </defs>
       <use xlink:href="#ArialMT-48"/>
       <use x="55.615234" xlink:href="#ArialMT-46"/>
       <use x="83.398438" xlink:href="#ArialMT-50"/>
       <use x="139.013672" xlink:href="#ArialMT-56"/>
      </g>
     </g>
    </g>
    <g id="ytick_8">
     <g id="line2d_43">
      <path clip-path="url(#p67512bc3aa)" d="M 72 249.405438 
L 518.4 249.405438 
" style="fill:none;stroke:#ffffff;stroke-linecap:round;"/>
     </g>
     <g id="line2d_44"/>
     <g id="text_22">
      <!-- 0.30 -->
      <g style="fill:#262626;" transform="translate(525.4 252.984344)scale(0.1 -0.1)">
       <defs>
        <path d="M 4.203125 18.890625 
L 12.984375 20.0625 
Q 14.5 12.59375 18.140625 9.296875 
Q 21.78125 6 27 6 
Q 33.203125 6 37.46875 10.296875 
Q 41.75 14.59375 41.75 20.953125 
Q 41.75 27 37.796875 30.921875 
Q 33.84375 34.859375 27.734375 34.859375 
Q 25.25 34.859375 21.53125 33.890625 
L 22.515625 41.609375 
Q 23.390625 41.5 23.921875 41.5 
Q 29.546875 41.5 34.03125 44.421875 
Q 38.53125 47.359375 38.53125 53.46875 
Q 38.53125 58.296875 35.25 61.46875 
Q 31.984375 64.65625 26.8125 64.65625 
Q 21.6875 64.65625 18.265625 61.421875 
Q 14.84375 58.203125 13.875 51.765625 
L 5.078125 53.328125 
Q 6.6875 62.15625 12.390625 67.015625 
Q 18.109375 71.875 26.609375 71.875 
Q 32.46875 71.875 37.390625 69.359375 
Q 42.328125 66.84375 44.9375 62.5 
Q 47.5625 58.15625 47.5625 53.265625 
Q 47.5625 48.640625 45.0625 44.828125 
Q 42.578125 41.015625 37.703125 38.765625 
Q 44.046875 37.3125 47.5625 32.6875 
Q 51.078125 28.078125 51.078125 21.140625 
Q 51.078125 11.765625 44.234375 5.25 
Q 37.40625 -1.265625 26.953125 -1.265625 
Q 17.53125 -1.265625 11.296875 4.34375 
Q 5.078125 9.96875 4.203125 18.890625 
z
" id="ArialMT-51"/>
       </defs>
       <use xlink:href="#ArialMT-48"/>
       <use x="55.615234" xlink:href="#ArialMT-46"/>
       <use x="83.398438" xlink:href="#ArialMT-51"/>
       <use x="139.013672" xlink:href="#ArialMT-48"/>
      </g>
     </g>
    </g>
    <g id="ytick_9">
     <g id="line2d_45">
      <path clip-path="url(#p67512bc3aa)" d="M 72 211.196242 
L 518.4 211.196242 
" style="fill:none;stroke:#ffffff;stroke-linecap:round;"/>
     </g>
     <g id="line2d_46"/>
     <g id="text_23">
      <!-- 0.32 -->
      <g style="fill:#262626;" transform="translate(525.4 214.775148)scale(0.1 -0.1)">
       <use xlink:href="#ArialMT-48"/>
       <use x="55.615234" xlink:href="#ArialMT-46"/>
       <use x="83.398438" xlink:href="#ArialMT-51"/>
       <use x="139.013672" xlink:href="#ArialMT-50"/>
      </g>
     </g>
    </g>
    <g id="ytick_10">
     <g id="line2d_47">
      <path clip-path="url(#p67512bc3aa)" d="M 72 172.987045 
L 518.4 172.987045 
" style="fill:none;stroke:#ffffff;stroke-linecap:round;"/>
     </g>
     <g id="line2d_48"/>
     <g id="text_24">
      <!-- 0.34 -->
      <g style="fill:#262626;" transform="translate(525.4 176.565952)scale(0.1 -0.1)">
       <defs>
        <path d="M 32.328125 0 
L 32.328125 17.140625 
L 1.265625 17.140625 
L 1.265625 25.203125 
L 33.9375 71.578125 
L 41.109375 71.578125 
L 41.109375 25.203125 
L 50.78125 25.203125 
L 50.78125 17.140625 
L 41.109375 17.140625 
L 41.109375 0 
z
M 32.328125 25.203125 
L 32.328125 57.46875 
L 9.90625 25.203125 
z
" id="ArialMT-52"/>
       </defs>
       <use xlink:href="#ArialMT-48"/>
       <use x="55.615234" xlink:href="#ArialMT-46"/>
       <use x="83.398438" xlink:href="#ArialMT-51"/>
       <use x="139.013672" xlink:href="#ArialMT-52"/>
      </g>
     </g>
    </g>
    <g id="ytick_11">
     <g id="line2d_49">
      <path clip-path="url(#p67512bc3aa)" d="M 72 134.777849 
L 518.4 134.777849 
" style="fill:none;stroke:#ffffff;stroke-linecap:round;"/>
     </g>
     <g id="line2d_50"/>
     <g id="text_25">
      <!-- 0.36 -->
      <g style="fill:#262626;" transform="translate(525.4 138.356755)scale(0.1 -0.1)">
       <use xlink:href="#ArialMT-48"/>
       <use x="55.615234" xlink:href="#ArialMT-46"/>
       <use x="83.398438" xlink:href="#ArialMT-51"/>
       <use x="139.013672" xlink:href="#ArialMT-54"/>
      </g>
     </g>
    </g>
    <g id="ytick_12">
     <g id="line2d_51">
      <path clip-path="url(#p67512bc3aa)" d="M 72 96.568653 
L 518.4 96.568653 
" style="fill:none;stroke:#ffffff;stroke-linecap:round;"/>
     </g>
     <g id="line2d_52"/>
     <g id="text_26">
      <!-- 0.38 -->
      <g style="fill:#262626;" transform="translate(525.4 100.147559)scale(0.1 -0.1)">
       <use xlink:href="#ArialMT-48"/>
       <use x="55.615234" xlink:href="#ArialMT-46"/>
       <use x="83.398438" xlink:href="#ArialMT-51"/>
       <use x="139.013672" xlink:href="#ArialMT-56"/>
      </g>
     </g>
    </g>
    <g id="ytick_13">
     <g id="line2d_53">
      <path clip-path="url(#p67512bc3aa)" d="M 72 58.359457 
L 518.4 58.359457 
" style="fill:none;stroke:#ffffff;stroke-linecap:round;"/>
     </g>
     <g id="line2d_54"/>
     <g id="text_27">
      <!-- 0.40 -->
      <g style="fill:#262626;" transform="translate(525.4 61.938363)scale(0.1 -0.1)">
       <use xlink:href="#ArialMT-48"/>
       <use x="55.615234" xlink:href="#ArialMT-46"/>
       <use x="83.398438" xlink:href="#ArialMT-52"/>
       <use x="139.013672" xlink:href="#ArialMT-48"/>
      </g>
     </g>
    </g>
    <g id="text_28">
     <!-- Force / pN -->
     <g style="fill:#262626;" transform="translate(556.868594 225.652109)rotate(-90)scale(0.11 -0.11)">
      <defs>
       <path d="M 40.4375 19 
L 49.078125 17.875 
Q 47.65625 8.9375 41.8125 3.875 
Q 35.984375 -1.171875 27.484375 -1.171875 
Q 16.84375 -1.171875 10.375 5.78125 
Q 3.90625 12.75 3.90625 25.734375 
Q 3.90625 34.125 6.6875 40.421875 
Q 9.46875 46.734375 15.15625 49.875 
Q 20.84375 53.03125 27.546875 53.03125 
Q 35.984375 53.03125 41.359375 48.75 
Q 46.734375 44.484375 48.25 36.625 
L 39.703125 35.296875 
Q 38.484375 40.53125 35.375 43.15625 
Q 32.28125 45.796875 27.875 45.796875 
Q 21.234375 45.796875 17.078125 41.03125 
Q 12.9375 36.28125 12.9375 25.984375 
Q 12.9375 15.53125 16.9375 10.796875 
Q 20.953125 6.0625 27.390625 6.0625 
Q 32.5625 6.0625 36.03125 9.234375 
Q 39.5 12.40625 40.4375 19 
z
" id="ArialMT-99"/>
      </defs>
      <use xlink:href="#ArialMT-70"/>
      <use x="61.083984" xlink:href="#ArialMT-111"/>
      <use x="116.699219" xlink:href="#ArialMT-114"/>
      <use x="150" xlink:href="#ArialMT-99"/>
      <use x="200" xlink:href="#ArialMT-101"/>
      <use x="255.615234" xlink:href="#ArialMT-32"/>
      <use x="283.398438" xlink:href="#ArialMT-47"/>
      <use x="311.181641" xlink:href="#ArialMT-32"/>
      <use x="338.964844" xlink:href="#ArialMT-112"/>
      <use x="394.580078" xlink:href="#ArialMT-78"/>
     </g>
    </g>
   </g>
   <g id="line2d_55"/>
   <g id="patch_7">
    <path d="M 72 352.44 
L 72 47.52 
" style="fill:none;"/>
   </g>
   <g id="patch_8">
    <path d="M 518.4 352.44 
L 518.4 47.52 
" style="fill:none;"/>
   </g>
   <g id="patch_9">
    <path d="M 72 352.44 
L 518.4 352.44 
" style="fill:none;"/>
   </g>
   <g id="patch_10">
    <path d="M 72 47.52 
L 518.4 47.52 
" style="fill:none;"/>
   </g>
   <g id="legend_2">
    <g id="line2d_56"/>
    <g id="line2d_57">
     <defs>
      <path d="M 0 1.75 
C 0.464105 1.75 0.909265 1.565609 1.237437 1.237437 
C 1.565609 0.909265 1.75 0.464105 1.75 0 
C 1.75 -0.464105 1.565609 -0.909265 1.237437 -1.237437 
C 0.909265 -1.565609 0.464105 -1.75 0 -1.75 
C -0.464105 -1.75 -0.909265 -1.565609 -1.237437 -1.237437 
C -1.565609 -0.909265 -1.75 -0.464105 -1.75 0 
C -1.75 0.464105 -1.565609 0.909265 -1.237437 1.237437 
C -0.909265 1.565609 -0.464105 1.75 0 1.75 
z
" id="mff2f135cc9"/>
     </defs>
     <g>
      <use style="fill:#4c72b0;" x="465.840625" xlink:href="#mff2f135cc9" y="337.9525"/>
     </g>
    </g>
    <g id="text_29">
     <!-- Force -->
     <g style="fill:#262626;" transform="translate(483.840625 341.4525)scale(0.1 -0.1)">
      <use xlink:href="#ArialMT-70"/>
      <use x="61.083984" xlink:href="#ArialMT-111"/>
      <use x="116.699219" xlink:href="#ArialMT-114"/>
      <use x="150" xlink:href="#ArialMT-99"/>
      <use x="200" xlink:href="#ArialMT-101"/>
     </g>
    </g>
   </g>
  </g>
 </g>
 <defs>
  <clipPath id="p67512bc3aa">
   <rect height="304.92" width="446.4" x="72" y="47.52"/>
  </clipPath>
 </defs>
</svg>
